# xmcd CD database file
# Copyright (C) 1993-1998 Ti Kan
#
# Track frame offsets:
#	150
#	19962
#	31912
#	47210
#	62065
#	82445
#	91102
#	114942
#	132082
#	146922
#	163930
#	177970
#	202927
#	213952
#	230752
#	252422
#	270452
#
# Disc length: 3791 seconds
#
# Revision: 1
# Processed by: cddbd v1.4b41PL1 Copyright (c) Steve Scherf et al.
# Submitted via: CDValet v3.31 - Copyright (c) 1997 Greg Leichner
#
DISCID=f60ecd11
DTITLE=Omar Sharif - "The raven"
DYEAR=1900
DGENRE=
TTITLE0=The raven
TTITLE1=Fillmore street boogie
TTITLE2=House built by the blues
TTITLE3=Love is just a fool
TTITLE4=San Francisco can be such a lonely town
TTITLE5=Great balls of fire
TTITLE6=This is love
TTITLE7=Stranded in St Louis
TTITLE8=Omar's boogie
TTITLE9=Just a blues
TTITLE10=The rattler
TTITLE11=The hoodo man
TTITLE12=Blue tumbleweed
TTITLE13=Suffering with the lowdown blues
TTITLE14=Cold feeling
TTITLE15=Jimmy, is that you?
TTITLE16=So you want to be a man
EXTD=Label: Arhoolie\nCode: CD 365\n
EXTT0=
EXTT1=
EXTT2=
EXTT3=
EXTT4=
EXTT5=
EXTT6=
EXTT7=
EXTT8=
EXTT9=
EXTT10=
EXTT11=
EXTT12=
EXTT13=
EXTT14=
EXTT15=
EXTT16=
PLAYORDER=
